<?xml version="1.0" standalone="no"?><!-- Generator: Gravit.io --><svg xmlns="http://www.w3.org/2000/svg" xmlns:xlink="http://www.w3.org/1999/xlink" style="isolation:isolate" viewBox="0 0 958 705" width="958" height="705"><defs><clipPath id="_clipPath_kog4PO95vw7akAyamRYjZxlsrd6bVTsj"><rect width="958" height="705"/></clipPath></defs><g clip-path="url(#_clipPath_kog4PO95vw7akAyamRYjZxlsrd6bVTsj)"><rect x="0" y="0" width="964" height="708" transform="matrix(1,0,0,1,0,0)" fill="rgb(0,0,0)"/><g id="ion logo"><path d=" M 245 368.07 C 245 285.006 312.437 217.57 395.5 217.57 C 478.563 217.57 546 285.006 546 368.07 C 546 451.133 478.563 518.57 395.5 518.57 C 312.437 518.57 245 451.133 245 368.07 Z " fill="none" vector-effect="non-scaling-stroke" stroke-width="5" stroke="rgb(255,255,255)" stroke-linejoin="miter" stroke-linecap="square" stroke-miterlimit="3"/><path d=" M 272 367.57 C 272 299.408 327.338 244.07 395.5 244.07 C 463.662 244.07 519 299.408 519 367.57 C 519 435.731 463.662 491.07 395.5 491.07 C 327.338 491.07 272 435.731 272 367.57 Z " fill="none" vector-effect="non-scaling-stroke" stroke-width="5" stroke="rgb(255,255,255)" stroke-linejoin="miter" stroke-linecap="square" stroke-miterlimit="3"/><path d=" M 300.5 367.07 C 300.5 314.638 343.068 272.07 395.5 272.07 C 447.932 272.07 490.5 314.638 490.5 367.07 C 490.5 419.502 447.932 462.07 395.5 462.07 C 343.068 462.07 300.5 419.502 300.5 367.07 Z " fill="none" vector-effect="non-scaling-stroke" stroke-width="5" stroke="rgb(255,255,255)" stroke-linejoin="miter" stroke-linecap="square" stroke-miterlimit="3"/><path d=" M 292 282.57 C 292 275.119 298.049 269.07 305.5 269.07 C 312.951 269.07 319 275.119 319 282.57 C 319 290.02 312.951 296.07 305.5 296.07 C 298.049 296.07 292 290.02 292 282.57 Z " fill="rgb(255,255,255)"/><path d=" M 323 258.57 C 323 251.119 329.049 245.07 336.5 245.07 C 343.951 245.07 350 251.119 350 258.57 C 350 266.02 343.951 272.07 336.5 272.07 C 329.049 272.07 323 266.02 323 258.57 Z " fill="rgb(255,255,255)"/><path d=" M 511.158 301.934 C 512.452 294.597 507.545 287.589 500.208 286.295 C 492.87 285.001 485.862 289.908 484.568 297.246 C 483.275 304.583 488.181 311.591 495.519 312.885 C 502.857 314.179 509.864 309.272 511.158 301.934 Z " fill="rgb(255,255,255)"/><path d=" M 484.797 272.916 C 486.091 265.578 481.184 258.57 473.846 257.277 C 466.508 255.983 459.501 260.89 458.207 268.227 C 456.913 275.565 461.82 282.573 469.158 283.866 C 476.495 285.16 483.503 280.253 484.797 272.916 Z " fill="rgb(255,255,255)"/><path d=" M 385 217.57 C 385 210.119 391.049 204.07 398.5 204.07 C 405.951 204.07 412 210.119 412 217.57 C 412 225.02 405.951 231.07 398.5 231.07 C 391.049 231.07 385 225.02 385 217.57 Z " fill="rgb(255,255,255)"/><path d=" M 524 411.57 C 524 419.02 517.951 425.07 510.5 425.07 C 503.049 425.07 497 419.02 497 411.57 C 497 404.119 503.049 398.07 510.5 398.07 C 517.951 398.07 524 404.119 524 411.57 Z " fill="rgb(255,255,255)"/><path d=" M 504 446.57 C 504 454.02 497.951 460.07 490.5 460.07 C 483.049 460.07 477 454.02 477 446.57 C 477 439.119 483.049 433.07 490.5 433.07 C 497.951 433.07 504 439.119 504 446.57 Z " fill="rgb(255,255,255)"/><path d=" M 307.211 463.227 C 305.917 470.565 310.824 477.573 318.161 478.866 C 325.499 480.16 332.507 475.253 333.801 467.916 C 335.094 460.578 330.188 453.57 322.85 452.277 C 315.512 450.983 308.505 455.89 307.211 463.227 Z " fill="rgb(255,255,255)"/><path d=" M 280.207 433.227 C 278.913 440.565 283.82 447.573 291.158 448.866 C 298.495 450.16 305.503 445.253 306.797 437.916 C 308.091 430.578 303.184 423.57 295.846 422.277 C 288.508 420.983 281.501 425.89 280.207 433.227 Z " fill="rgb(255,255,255)"/><path d=" M 409.207 455.227 C 407.913 462.565 412.82 469.573 420.158 470.866 C 427.495 472.16 434.503 467.253 435.797 459.916 C 437.091 452.578 432.184 445.57 424.846 444.277 C 417.508 442.983 410.501 447.89 409.207 455.227 Z " fill="rgb(255,255,255)"/><path d=" M 370.207 459.227 C 368.913 466.565 373.82 473.573 381.158 474.866 C 388.495 476.16 395.503 471.253 396.797 463.916 C 398.091 456.578 393.184 449.57 385.846 448.277 C 378.508 446.983 371.501 451.89 370.207 459.227 Z " fill="rgb(255,255,255)"/><g transform="matrix(4.792,0,0,4.792,341.987,301.044)"><text transform="matrix(1,0,0,1,0,18.64)" style="font-family:&quot;Ubuntu&quot;;font-weight:700;font-size:20px;font-style:normal;fill:#ffffff;stroke:none;">$_</text></g></g><g transform="matrix(16.942,0,0,16.942,127,166.134)"><text transform="matrix(1,0,0,1,0,18.64)" style="font-family:&quot;Ubuntu&quot;;font-weight:400;font-size:20px;font-style:normal;fill:#ffffff;stroke:none;">I</text></g><g transform="matrix(16.973,0,0,16.973,563,166.134)"><text transform="matrix(1,0,0,1,0,18.64)" style="font-family:&quot;Ubuntu&quot;;font-weight:400;font-size:20px;font-style:normal;fill:#ffffff;stroke:none;">N</text></g><g transform="matrix(1,0,0,1,150,128.07)"><text transform="matrix(1,0,0,1,0,67.104)" style="font-family:&quot;Ubuntu&quot;;font-weight:400;font-size:72px;font-style:normal;word-spacing:1;fill:#ffffff;stroke:none;">The</text></g><g transform="matrix(1,0,0,1,627,518.57)"><text transform="matrix(1,0,0,1,0,67.104)" style="font-family:&quot;Ubuntu&quot;;font-weight:400;font-size:72px;font-style:normal;fill:#ffffff;stroke:none;">Shell</text></g></g></svg>